<?xml version="1.0" encoding="UTF-8"?>
<svg version="1.1" xmlns="http://www.w3.org/2000/svg" width="911" height="797">
<path d="M0 0 C0.96546594 -0.00382555 1.93093187 -0.00765109 2.92565435 -0.01159257 C6.15137404 -0.02188751 9.37691457 -0.01793709 12.60264587 -0.01396179 C14.91903854 -0.01831012 17.23542976 -0.02349367 19.55181885 -0.02944946 C25.83674694 -0.04283556 32.12161489 -0.0434187 38.40655446 -0.04088616 C43.65287302 -0.0398165 48.8991794 -0.04469954 54.14549536 -0.04949158 C67.22689521 -0.06121887 80.30826079 -0.06036237 93.38966285 -0.05393478 C104.74688564 -0.04876287 116.10402272 -0.06002971 127.46122856 -0.07903299 C139.12999655 -0.09840765 150.79872031 -0.10637674 162.46750444 -0.10290974 C169.01585313 -0.10109507 175.56412327 -0.10375174 182.11245918 -0.11762428 C188.26762683 -0.13017637 194.42262247 -0.12828326 200.5777874 -0.11521339 C202.83769157 -0.11284261 205.09760776 -0.11560017 207.35749817 -0.12383652 C210.44027457 -0.1342627 213.52246936 -0.1262363 216.60522461 -0.11352539 C217.50123652 -0.12089968 218.39724843 -0.12827396 219.32041222 -0.13587171 C225.60823061 -0.08125818 229.91108741 1.00663095 234.57505798 5.52241516 C235.24794861 6.32292297 235.92083923 7.12343079 236.61412048 7.94819641 C237.30247986 8.7564386 237.99083923 9.56468079 238.70005798 10.39741516 C239.20794861 11.01229797 239.71583923 11.62718079 240.23912048 12.26069641 C242.86383558 11.88895565 243.97801607 11.56554607 245.73130798 9.51850891 C246.64926449 8.10267768 247.56594299 6.68601699 248.48130798 5.26850891 C251.18968825 2.17493679 254.22168504 0.52493905 258.3458823 -0.01524615 C260.88474626 -0.12598483 263.40769805 -0.13907124 265.94894409 -0.12025452 C266.92101714 -0.12493449 267.89309019 -0.12961446 268.89462 -0.13443625 C272.1488342 -0.14639326 275.40262783 -0.13692602 278.65684509 -0.12748718 C280.99117275 -0.13155258 283.32549848 -0.13689429 285.65982056 -0.14341736 C291.99862402 -0.15710115 298.3372811 -0.15178762 304.67608714 -0.1422801 C310.63631672 -0.13545766 316.59652818 -0.14066382 322.55675823 -0.14506169 C335.08214027 -0.15361333 347.60745641 -0.14378535 360.13282765 -0.12766059 C370.87393939 -0.11426072 381.61495386 -0.11658317 392.35606384 -0.13041687 C404.83561875 -0.14648207 417.3151159 -0.15278609 429.7946797 -0.14358008 C436.3984009 -0.13890298 443.00205512 -0.13827973 449.60577202 -0.14818954 C455.81511033 -0.15685645 462.02426498 -0.15084206 468.23358345 -0.13350677 C470.51241374 -0.12954033 472.79125948 -0.13067866 475.07008362 -0.13729477 C478.18103542 -0.14549393 481.29139889 -0.13520778 484.40231323 -0.12025452 C485.75465786 -0.13029276 485.75465786 -0.13029276 487.13432258 -0.1405338 C493.48565378 -0.08133105 498.22693111 0.94531587 503.38365173 4.90913391 C504.20929626 5.76378235 504.20929626 5.76378235 505.05162048 6.63569641 C505.6149408 7.20030579 506.17826111 7.76491516 506.75865173 8.34663391 C510.90800758 13.71123646 510.52665656 19.26539172 510.50654602 25.75466919 C510.51107713 26.82318751 510.51560825 27.89170582 510.52027667 28.99260348 C510.53295421 32.57916323 510.53129811 36.16557179 510.52964783 39.75215149 C510.53563097 42.32115881 510.54243602 44.89016433 510.55000305 47.45916748 C510.56660842 53.71700577 510.57211239 59.97480638 510.57322781 66.23266486 C510.57417853 71.3202021 510.57829003 76.40772693 510.58462906 81.49526024 C510.60224044 95.92363294 510.61146813 110.3519759 510.60996811 124.78035942 C510.60984824 125.94685548 510.60984824 125.94685548 510.60972595 127.13691711 C510.60964419 127.91553219 510.60956243 128.69414727 510.60947819 129.49635675 C510.60866538 142.11334531 510.62780191 154.73021446 510.65600269 167.34716848 C510.68473952 180.30635613 510.69854253 193.26548556 510.69681513 206.22470587 C510.69615149 213.49863871 510.70163232 220.77244637 510.72317123 228.04635048 C510.74329964 234.88769334 510.74270114 241.72876779 510.72813797 248.57012367 C510.72604455 251.08074835 510.73078231 253.59138943 510.74285889 256.10198593 C510.75828113 259.5302266 510.749022 262.95755193 510.7335968 266.38577271 C510.74388393 267.37848783 510.75417105 268.37120295 510.76476991 269.39400035 C510.67887413 278.03714078 507.78536369 284.2642094 501.97349548 290.60835266 C494.66052594 297.57543851 485.52257987 300.78809264 476.23912048 304.26069641 C474.00926537 305.11306424 471.78005958 305.96713337 469.55162048 306.82319641 C467.95640564 307.43227844 467.95640564 307.43227844 466.32896423 308.05366516 C463.40003604 309.19783559 460.50708856 310.40387783 457.61412048 311.63569641 C452.42113268 313.82691745 447.16082564 315.776776 441.86412048 317.69819641 C436.26319373 319.73001789 430.75271493 321.84728388 425.30162048 324.26069641 C418.7991018 327.12180463 412.16096407 329.46197029 405.42881775 331.72554016 C400.60994078 333.3613902 395.98046339 335.20936842 391.34971619 337.31880188 C388.27933223 338.68902065 385.14383836 339.84986949 381.98912048 341.01069641 C380.57618548 341.5349657 379.16343401 342.05972983 377.75083923 342.58491516 C377.01268982 342.85867981 376.27454041 343.13244446 375.51402283 343.414505 C360.61877955 348.95506233 345.8277365 354.75996846 331.0499115 360.60469055 C323.72243134 363.50174624 316.38446629 366.36657576 309.02671814 369.18623352 C305.64538429 370.48954849 302.28493569 371.83671727 298.92662048 373.19819641 C293.0605429 375.56305491 287.15556199 377.8056923 281.22691345 380.008255 C275.39986071 382.18117445 269.63091438 384.48398987 263.86412048 386.81147766 C259.24572964 388.65783865 254.59954219 390.42657501 249.94615173 392.18257141 C247.28297873 393.19103864 247.28297873 393.19103864 245.02037048 394.41304016 C242.40335871 395.65841638 240.98830749 395.09184597 238.23912048 394.26069641 C234.80817308 392.88831745 231.51640352 391.40511466 228.23912048 389.69819641 C225.25802009 388.16629549 225.25802009 388.16629549 221.94859314 387.32246399 C218.49100209 386.33279284 215.22781419 385.16177179 211.88755798 383.83491516 C210.70548767 383.36763 209.52341736 382.90034485 208.30552673 382.41889954 C207.08736267 381.9335675 205.86919861 381.44823547 204.61412048 380.94819641 C202.20545106 379.99330319 199.79659763 379.03887398 197.38755798 378.08491516 C196.20621277 377.61674377 195.02486755 377.14857239 193.807724 376.66621399 C186.9123175 373.95041353 179.9993449 371.27751958 173.05162048 368.69819641 C170.32287707 367.681936 167.62339804 366.60886872 164.92662048 365.51069641 C159.98904751 363.51740809 154.99276739 361.70421873 149.98912048 359.88569641 C144.24082724 357.79408538 138.58649395 355.60362926 132.98912048 353.13569641 C126.99517006 350.50060683 120.94606678 348.41055645 114.71177673 346.43647766 C109.11743769 344.54233137 103.78358043 342.0614621 98.3936615 339.6608429 C92.92260143 337.23430633 87.50568951 334.85392337 81.78599548 333.06929016 C78.01578058 331.87230475 74.285482 330.56602367 70.55162048 329.26069641 C69.46312805 328.88642517 69.46312805 328.88642517 68.35264587 328.5045929 C64.13353046 327.02778133 60.23567962 325.27785312 56.23912048 323.26069641 C54.04275951 322.43639629 51.83348404 321.6458922 49.61412048 320.88569641 C45.15229165 319.3238232 40.77082889 317.68671202 36.42662048 315.82319641 C31.57304202 313.75328795 26.66197944 311.97807001 21.67662048 310.26069641 C15.8685069 308.25443182 10.27074823 306.04849889 4.71568298 303.40522766 C2.23598612 302.25924788 -0.26723799 301.28471714 -2.82337952 300.32319641 C-12.25683484 296.54381526 -19.01868525 292.4939407 -23.76087952 283.26069641 C-24.53038657 281.7851798 -24.53038657 281.7851798 -25.31543922 280.27985477 C-27.35519376 275.44521089 -27.17665105 270.68964903 -27.14183044 265.51275635 C-27.14651042 264.44111805 -27.15119039 263.36947975 -27.15601218 262.26536757 C-27.1679628 258.68026932 -27.15850439 255.09555326 -27.14906311 251.51045227 C-27.15312874 248.93790463 -27.15847057 246.36535874 -27.16499329 243.79281616 C-27.17831829 237.53455751 -27.17545855 231.27640692 -27.16675536 225.01814406 C-27.15997496 219.93158739 -27.15906363 214.84506095 -27.16232681 209.75850105 C-27.16278651 209.03403717 -27.16324621 208.3095733 -27.16371984 207.56315597 C-27.16467903 206.09134708 -27.16565167 204.61953821 -27.16663761 203.14772934 C-27.17518774 189.35384014 -27.165363 175.5600108 -27.14923652 161.76613141 C-27.13583083 149.93315372 -27.1381642 138.10026431 -27.1519928 126.26728821 C-27.1680504 112.52056712 -27.17436679 98.77389845 -27.16515601 85.02716929 C-27.16420037 83.5611382 -27.16325726 82.09510711 -27.16232681 80.629076 C-27.16186399 79.9077883 -27.16140116 79.1865006 -27.16092431 78.44335569 C-27.15833517 73.36304155 -27.16270371 68.28276069 -27.16976547 63.20245171 C-27.17906179 56.36439479 -27.17243531 49.52650749 -27.1550827 42.68846703 C-27.15111152 40.17700732 -27.15226264 37.66553359 -27.1588707 35.15407944 C-27.16705092 31.72974668 -27.15680656 28.30595123 -27.14183044 24.88165283 C-27.15186869 23.38588798 -27.15186869 23.38588798 -27.16210973 21.85990566 C-27.10965369 15.68929346 -26.35667427 11.26770618 -22.18275452 6.43257141 C-21.63103577 5.96335266 -21.07931702 5.49413391 -20.51087952 5.01069641 C-19.96947327 4.53116516 -19.42806702 4.05163391 -18.87025452 3.55757141 C-12.9842161 -0.06125221 -6.69261301 -0.02829949 0 0 Z " fill="#F11B25" transform="translate(214.76087951660156,71.73930358886719)"/>
<path d="M0 0 C300.63 0 601.26 0 911 0 C911 263.01 911 526.02 911 797 C610.37 797 309.74 797 0 797 C0 533.99 0 270.98 0 0 Z M45 45 C45 278.31 45 511.62 45 752 C315.93 752 586.86 752 866 752 C866 518.69 866 285.38 866 45 C595.07 45 324.14 45 45 45 Z " fill="#FFF503" transform="translate(0,0)"/>
<path d="M0 0 C0.85667267 0.00359528 1.71334534 0.00719055 2.59597778 0.01089478 C3.4934523 0.01074875 4.39092682 0.01060272 5.31559753 0.01045227 C8.29702123 0.01115175 11.27838329 0.01894575 14.25979614 0.02676392 C16.32102932 0.02862797 18.38226293 0.03005193 20.4434967 0.03105164 C25.88017999 0.03487779 31.31683675 0.04470891 36.75350952 0.05575562 C42.29661704 0.06596764 47.83972882 0.07054881 53.38284302 0.07559204 C64.26762033 0.08633109 75.15237791 0.10340868 86.03713989 0.12442017 C86.03773698 0.72676709 86.03833407 1.32911402 86.03894925 1.94971389 C86.07487512 37.68216008 86.13156304 73.41451499 86.21506085 109.14688246 C86.22507781 113.44123388 86.23492202 117.73558568 86.24465942 122.02993774 C86.2466008 122.88483415 86.24854217 123.73973055 86.25054237 124.62053291 C86.28152887 138.44688005 86.29853366 152.27321061 86.31033412 166.09958591 C86.32276306 180.29604166 86.35030373 194.49241065 86.39175296 208.6888116 C86.41683854 217.44254278 86.43026079 226.19613 86.42856947 234.94989762 C86.42853962 240.95987693 86.44324257 246.96971005 86.46930417 252.97963234 C86.48389271 256.44251497 86.49220293 259.90509782 86.48294258 263.36800575 C86.47627995 267.13414822 86.49427964 270.89942607 86.51815796 274.66548157 C86.50651733 276.2837344 86.50651733 276.2837344 86.49464154 277.93467921 C86.58327761 285.8758065 88.39765929 292.66097715 91.03713989 300.12442017 C91.53213989 301.60942017 91.53213989 301.60942017 92.03713989 303.12442017 C92.69713989 303.12442017 93.35713989 303.12442017 94.03713989 303.12442017 C94.28463989 303.90817017 94.53213989 304.69192017 94.78713989 305.49942017 C96.25960074 308.59158795 96.99693769 308.80287471 100.03713989 310.12442017 C100.6944812 310.41550659 101.35182251 310.70659302 102.02908325 311.00650024 C104.34336344 311.98548412 106.65821081 312.96302956 108.97463989 313.93692017 C109.75387817 314.2675647 110.53311646 314.59820923 111.33596802 314.93887329 C117.03366449 317.33863066 122.78376443 319.57720757 128.55886841 321.78335571 C135.38532164 324.41532789 142.16532292 327.16526441 148.95315552 329.89492798 C156.57629723 332.95897932 164.21513977 335.97335991 171.88870239 338.90957642 C177.12529618 340.93014796 182.33008555 343.029161 187.53713989 345.12442017 C195.02435532 348.13003475 202.51966029 351.09941374 210.06033325 353.96817017 C212.85897823 355.05521869 215.62891834 356.1913637 218.39651489 357.35488892 C225.21408941 360.2058174 232.0541547 362.99943152 238.900177 365.78115845 C240.96913369 366.62218191 243.03732426 367.46507036 245.10549927 368.30801392 C252.45672299 371.29903209 259.82808988 374.22134817 267.24295044 377.05215454 C270.67156936 378.36788144 274.07312844 379.74022129 277.47463989 381.12442017 C282.39120589 383.11633873 287.33470022 384.95181631 292.34963989 386.68692017 C296.36210528 388.09464545 300.1468683 389.5881384 303.91213989 391.56192017 C308.67565239 394.0563533 313.615815 395.90852897 318.65505981 397.75088501 C324.46010426 399.88113928 330.17138119 402.20068199 335.8755188 404.58657837 C340.20772167 406.39257982 344.56623755 408.07257565 348.97463989 409.68692017 C359.11693056 413.57902421 366.95795792 418.25440024 372.57316971 427.71134949 C374.34231727 431.83590457 374.58901407 435.2028672 374.71456909 439.63980103 C374.74761918 440.46851935 374.78066926 441.29723768 374.81472087 442.15106869 C375.17357467 452.05677842 375.19309353 461.96740224 375.19827271 471.87832642 C375.20291509 473.98460982 375.20794159 476.09089241 375.21331787 478.19717407 C375.22628591 483.85309449 375.23285293 489.50900315 375.23732853 495.16493607 C375.24027777 498.70236617 375.24438533 502.23979316 375.2488327 505.77722168 C375.26245096 516.85900384 375.27215169 527.94077877 375.27603459 539.0225687 C375.28053639 551.79556904 375.29820551 564.56846349 375.32703519 577.34143162 C375.34860493 587.24156953 375.35873594 597.14167748 375.36007571 607.04183865 C375.36112482 612.94661497 375.36705828 618.85129096 375.38489532 624.75604248 C375.40129991 630.29166954 375.40356886 635.82711984 375.39475632 641.36276245 C375.39398251 643.39657056 375.39837349 645.43038792 375.40821457 647.46417236 C375.42082787 650.23207648 375.41511626 652.99934381 375.40463257 655.76724243 C375.41671718 656.98368864 375.41671718 656.98368864 375.42904592 658.22470951 C375.40300639 661.14761665 375.36301517 663.52187133 373.95432186 666.12656879 C370.96023079 667.68492785 368.35358136 667.47351686 364.99473572 667.44721985 C364.27346723 667.44569957 363.55219874 667.44417929 362.80907363 667.44261295 C360.38584404 667.43382461 357.96336364 667.40343713 355.54031372 667.37319946 C353.80591063 667.36249412 352.07149891 667.35311646 350.33708191 667.3449707 C345.6223624 667.31904997 340.90797921 667.27449562 336.19343781 667.22667289 C331.26874604 667.1798617 326.34395252 667.15007952 321.41914368 667.11851501 C312.09055805 667.05612548 302.76216621 666.97835232 293.43374604 666.89509469 C282.81485577 666.80106528 272.1958634 666.72412064 261.57682765 666.64863336 C239.73009739 666.49294809 217.88358527 666.31573506 196.03713989 666.12442017 C195.06635998 663.21208044 194.91782346 661.39616263 194.93034363 658.36898804 C194.93261711 656.90129219 194.93261711 656.90129219 194.93493652 655.40394592 C194.94167389 654.33169266 194.94841125 653.25943939 194.95535278 652.1546936 C194.95841934 651.02433182 194.9614859 649.89397003 194.96464539 648.72935486 C194.97180776 646.27065071 194.98120154 643.81195229 194.99254036 641.35326385 C195.00989635 637.46132529 195.02021936 633.56942761 195.02845764 629.67745972 C195.05259803 618.61009854 195.08840421 607.54279105 195.13308716 596.47549438 C195.16031937 589.70934798 195.17691935 582.94323167 195.18795586 576.1770401 C195.19416252 573.5982673 195.20416391 571.01950072 195.21803474 568.44075775 C195.23727284 564.83103895 195.24415043 561.22148806 195.24832153 557.61172485 C195.25708313 556.54756851 195.26584473 555.48341217 195.27487183 554.38700867 C195.30167258 544.78896429 195.30167258 544.78896429 190.84963989 536.56192017 C189.92151489 535.75754517 188.99338989 534.95317017 188.03713989 534.12442017 C187.08838989 533.23754517 186.13963989 532.35067017 185.16213989 531.43692017 C179.76830952 526.85747556 173.69008151 523.16159142 167.78665161 519.28359985 C165.59318674 517.83026867 163.4361045 516.33016933 161.28713989 514.81192017 C156.44210634 511.39284967 151.55536634 508.03646714 146.66213989 504.68692017 C145.83601196 504.12134399 145.00988403 503.55576782 144.15872192 502.97305298 C138.63411904 499.1980718 133.08113219 495.47245594 127.48245239 491.80801392 C124.8962357 490.02740785 122.48413846 488.0906187 120.03713989 486.12442017 C118.63403267 485.14634177 117.21754216 484.18712832 115.78713989 483.24942017 C115.00467896 482.73379517 114.22221802 482.21817017 113.41604614 481.68692017 C112.63100708 481.17129517 111.84596802 480.65567017 111.03713989 480.12442017 C109.59884012 479.16728758 108.1613371 478.2089566 106.72463989 477.24942017 C104.21772759 475.57523873 101.70727263 473.90722362 99.18948364 472.24942017 C94.26514859 468.99618204 89.40746219 465.69706298 84.66213989 462.18692017 C79.87195851 458.65694639 74.93731929 455.42287791 69.89505005 452.26919556 C66.41896848 450.08023615 63.22007005 447.71653887 60.03713989 445.12442017 C58.7170782 444.20914301 57.38371638 443.31272089 56.03713989 442.43692017 C52.16480799 439.887635 48.34270703 437.27193905 44.53713989 434.62442017 C40.12099484 431.55455993 35.6744446 428.53807934 31.18948364 425.56973267 C28.05961138 423.46800356 24.98926651 421.28446005 21.91604614 419.10098267 C19.73730794 417.60513256 17.55169819 416.17600058 15.31448364 414.77285767 C4.23312307 407.77244364 -2.3198183 401.79574685 -6.13865316 388.84522963 C-7.59761513 382.25887468 -7.50273677 375.69457471 -7.4506073 368.98971558 C-7.45307275 367.39528168 -7.45729416 365.8008497 -7.46310204 364.20642447 C-7.47391034 359.85938033 -7.45999934 355.5127243 -7.44178164 351.16571808 C-7.42648894 346.46512838 -7.43444952 341.76456877 -7.43946838 337.06396484 C-7.44567725 327.87243793 -7.43074784 318.68106222 -7.40874276 309.48956433 C-7.38401004 298.78839458 -7.38113643 288.08725217 -7.379339 277.38605806 C-7.37546738 258.30271872 -7.35302827 239.21944742 -7.31954956 220.13613892 C-7.28706925 201.60683914 -7.26585837 183.0775753 -7.25802612 164.54824829 C-7.25754063 163.4052228 -7.25705514 162.2621973 -7.25655494 161.08453467 C-7.25462634 156.49044982 -7.25271421 151.89636496 -7.25083883 147.30228008 C-7.24331679 129.65038739 -7.22769023 111.99850061 -7.21034223 94.34661515 C-7.20510135 89.01056878 -7.20016838 83.67452253 -7.19598031 78.33847523 C-7.18707542 67.12398939 -7.17533578 55.90952078 -7.15441427 44.69505015 C-7.14579431 40.05697411 -7.13872075 35.41891009 -7.13589859 30.78082657 C-7.13324396 26.54257473 -7.12599033 22.3043576 -7.11490812 18.06611964 C-7.11168582 16.52612641 -7.11017097 14.98612855 -7.11045841 13.44613197 C-7.11058244 11.36678878 -7.10465723 9.28755245 -7.09708118 7.20822525 C-7.09529261 6.04915106 -7.09350404 4.89007687 -7.09166127 3.69587922 C-6.84852894 -1.15815161 -4.23411955 0.0075057 0 0 Z " fill="#292D95" transform="translate(70.96286010742188,71.87557983398438)"/>
<path d="M0 0 C30.03 0 60.06 0 91 0 C91.17641351 49.84461826 91.32410733 99.68894175 91.40852264 149.53378294 C91.41852811 155.42039035 91.42888271 161.3069971 91.43945312 167.19360352 C91.44155161 168.36550509 91.44365009 169.53740666 91.44581217 170.74482039 C91.4806086 189.71216308 91.54367743 208.6793115 91.61722237 227.646539 C91.69207393 247.11331327 91.73647858 266.57998591 91.75270796 286.04689819 C91.76367683 298.05603625 91.79830174 310.06462518 91.86333174 322.07359419 C91.90566814 330.31219362 91.91838982 338.55050977 91.90801102 346.78921004 C91.90289434 351.54044721 91.91065407 356.29072585 91.9536438 361.04179192 C91.99277375 365.39825787 91.99441683 369.75312718 91.96719116 374.10966895 C91.96382996 375.67923581 91.97381427 377.24890511 91.99906546 378.81827243 C92.16581334 389.82872507 90.18128128 397.53532439 83 406 C79.51294084 408.76412368 75.90801455 410.88922423 72 413 C70.46661875 413.9806508 68.94495189 414.9799398 67.4375 416 C66.71304687 416.48597656 65.98859375 416.97195313 65.2421875 417.47265625 C61.13168621 420.27266671 57.06591432 423.13580308 53 426 C51.25059343 427.23001112 49.50060232 428.45919132 47.75 429.6875 C46.98171875 430.22761719 46.2134375 430.76773437 45.421875 431.32421875 C43.66673181 432.5386646 41.8963966 433.73124941 40.1171875 434.91015625 C36.81847697 437.12169777 33.59385764 439.42504226 30.375 441.75 C24.01467338 446.3188163 17.54339387 450.6968551 11 455 C4.59329454 459.23281519 -1.7224991 463.57787073 -8 468 C-9.74940657 469.23001112 -11.49939768 470.45919132 -13.25 471.6875 C-14.01828125 472.22761719 -14.7865625 472.76773437 -15.578125 473.32421875 C-18.36277282 475.25101539 -21.18245378 477.12163586 -24 479 C-26.5892427 480.76225892 -29.170036 482.53669264 -31.75 484.3125 C-32.45737305 484.79887939 -33.16474609 485.28525879 -33.89355469 485.78637695 C-37.69250727 488.4013024 -41.47978987 491.03121559 -45.25 493.6875 C-49.79939871 496.88581889 -54.42831723 499.95755735 -59.0625 503.03125 C-62.56050311 505.37565634 -66.00091346 507.79504454 -69.44140625 510.22265625 C-72.24606249 512.17092891 -75.08768252 514.05596027 -77.9375 515.9375 C-83.74843698 519.79905735 -89.41949385 523.8125837 -95 528 C-96.37091797 529.02480469 -96.37091797 529.02480469 -97.76953125 530.0703125 C-98.64996094 530.74835937 -99.53039062 531.42640625 -100.4375 532.125 C-101.21996094 532.72570312 -102.00242187 533.32640625 -102.80859375 533.9453125 C-107.3586317 538.21147999 -109.2098991 541.14743928 -109.51898193 547.39108276 C-109.54823647 549.58460111 -109.55567637 551.77847634 -109.54589844 553.97216797 C-109.56140495 555.77301598 -109.56140495 555.77301598 -109.57722473 557.61024475 C-109.60160502 560.88886327 -109.60849112 564.16695089 -109.60750484 567.44564199 C-109.61064048 570.87702422 -109.63627212 574.30823791 -109.65948486 577.73953247 C-109.69999887 584.23107726 -109.72037466 590.72252172 -109.73345876 597.21417344 C-109.74934447 604.60724844 -109.78776663 612.00015307 -109.82805204 619.39312911 C-109.91038791 634.59536292 -109.96451936 649.79757919 -110 665 C-114.18943128 667.01691089 -117.57532847 667.23794992 -122.20025635 667.20927429 C-122.91436102 667.20760516 -123.62846569 667.20593602 -124.36420989 667.2042163 C-126.75109664 667.19615708 -129.1376231 667.17362882 -131.52441406 667.15112305 C-133.23778879 667.1423317 -134.95116821 667.1344191 -136.66455078 667.12731934 C-141.31302438 667.10543241 -145.96132618 667.07087899 -150.6097002 667.03379035 C-155.46988344 666.99687542 -160.33012524 666.97066802 -165.19036865 666.94306946 C-173.34799769 666.8951448 -181.50554334 666.83937855 -189.66308594 666.77856445 C-199.10674676 666.70822072 -208.55042719 666.64844291 -217.99419618 666.59470528 C-228.03672228 666.53746117 -238.07918905 666.47265239 -248.12165356 666.40554833 C-251.02209883 666.38667663 -253.92254981 666.36921605 -256.82300568 666.3520565 C-261.37021547 666.32477183 -265.91736186 666.29243202 -270.46450806 666.25609589 C-272.1379146 666.24349874 -273.81133493 666.23260679 -275.4847641 666.22349739 C-277.7591322 666.21082127 -280.03336825 666.19207579 -282.30767822 666.17167664 C-283.58339817 666.16262645 -284.85911812 666.15357626 -286.17349625 666.14425182 C-289 666 -289 666 -290 665 C-290.10461109 662.13181296 -290.14331778 659.28748599 -290.14044189 656.41862488 C-290.14341302 655.50743796 -290.14638414 654.59625105 -290.1494453 653.6574524 C-290.15817329 650.57916165 -290.15964403 647.5009096 -290.16113281 644.42260742 C-290.16575836 642.2252087 -290.17078266 640.02781079 -290.17617798 637.83041382 C-290.18933574 631.84018923 -290.19575435 625.84997586 -290.20018864 619.85973907 C-290.20311601 616.11696899 -290.20722033 612.37420201 -290.21169281 608.63143349 C-290.22381092 598.26447168 -290.23418799 587.89751206 -290.2375679 577.53054333 C-290.23778747 576.86638466 -290.23800703 576.202226 -290.23823325 575.51794131 C-290.23845153 574.85219163 -290.23866981 574.18644194 -290.2388947 573.50051802 C-290.23933816 572.1514684 -290.23978473 570.80241877 -290.24023438 569.45336914 C-290.2404558 568.78419404 -290.24067723 568.11501895 -290.24090537 567.42556582 C-290.24484529 556.60550636 -290.26227096 545.7855146 -290.2855939 534.96548124 C-290.30935816 523.85058912 -290.32151472 512.73572507 -290.32293582 501.62080652 C-290.32398271 495.38292408 -290.32986499 489.14513687 -290.34775543 482.90727806 C-290.36427816 477.0312428 -290.36637114 471.15537385 -290.35761642 465.27932358 C-290.3568481 463.12836956 -290.36116157 460.97740646 -290.37107468 458.82647514 C-290.49612028 429.99000833 -290.49612028 429.99000833 -281 420 C-280.48566406 419.45730469 -279.97132813 418.91460937 -279.44140625 418.35546875 C-272.20508687 411.50092161 -262.29282558 408.67456738 -253.11547852 405.30078125 C-248.68147982 403.66277679 -244.33358335 401.89254552 -240 400 C-233.81031334 397.30426543 -227.54700968 394.91262005 -221.21875 392.5703125 C-216.71298981 390.90080531 -212.22938771 389.1763721 -207.75 387.4375 C-207.05422852 387.16881104 -206.35845703 386.90012207 -205.64160156 386.62329102 C-200.42895634 384.59594869 -195.26969151 382.45070456 -190.11035156 380.29174805 C-185.09309447 378.20805046 -180.04698394 376.19788193 -175 374.1875 C-172.78123493 373.30212111 -170.56248508 372.41670404 -168.34375 371.53125 C-167.2609375 371.09941406 -166.178125 370.66757812 -165.0625 370.22265625 C-162.40508423 369.16172368 -159.74893516 368.09774937 -157.09375 367.03125 C-146.57983059 362.80985339 -136.04293098 358.64826031 -125.5 354.5 C-114.2453567 350.07158377 -103.00067831 345.62057241 -91.77734375 341.11328125 C-88.42589901 339.76987513 -85.07237732 338.43169493 -81.71875 337.09375 C-64.54405547 330.24302535 -64.54405547 330.24302535 -47.43505859 323.23022461 C-43.46045517 321.58339931 -39.46248495 320.01913874 -35.4375 318.5 C-33.28952889 317.6721925 -31.14383686 316.8384561 -29 316 C-28.33516602 315.74250977 -27.67033203 315.48501953 -26.98535156 315.21972656 C-15.2377424 310.92569526 -15.2377424 310.92569526 -7 302 C-6.6184375 301.35675781 -6.236875 300.71351563 -5.84375 300.05078125 C1.50061752 285.860414 -0.69313012 267.23107877 -0.68115234 251.79931641 C-0.67293321 249.04850989 -0.66175899 246.29771719 -0.65071106 243.54692078 C-0.62855077 237.64799125 -0.61347036 231.74907873 -0.60334396 225.85011673 C-0.58869285 217.32145315 -0.56313848 208.79284893 -0.53501268 200.2642204 C-0.48966087 186.42355856 -0.45299835 172.58288812 -0.421875 158.7421875 C-0.39164171 145.30564872 -0.35726965 131.86913093 -0.31738281 118.43261719 C-0.31492126 117.60292355 -0.31245972 116.77322991 -0.30992357 115.91839404 C-0.29754805 111.75562684 -0.28509169 107.59285989 -0.27259517 103.43009305 C-0.16920141 68.95342029 -0.08155544 34.47673305 0 0 Z " fill="#292D95" transform="translate(753,72)"/>
</svg>
